<?xml version="1.0" encoding="utf-8"?>
<!DOCTYPE svg PUBLIC "-//W3C//DTD SVG 20010904//EN" "http://www.w3.org/TR/2001/REC-SVG-20010904/DTD/svg10.dtd">
<svg version="1.0" xmlns="http://www.w3.org/2000/svg" width="249px" height="58px" viewBox="0 0 249 58" preserveAspectRatio="xMidYMid meet">
 <g fill="#707780">
  <path d="M14.2 52.8 c-3.2 -1.6 -3.7 -4.9 -1.4 -10 2.3 -5.3 6.4 -10.2 11.6 -13.9 3.4 -2.5 4.8 -2.9 10.7 -2.9 5.7 0 7 0.3 8.2 2.1 1.4 1.9 1.2 2.9 -1.4 10.7 -1.6 4.7 -2.9 8.7 -2.9 8.9 0 0.2 1.5 0.3 3.4 0.3 3.3 0 3.6 -0.4 9.3 -10.5 5.9 -10.7 8.6 -13.2 11.7 -10.6 0.7 0.6 1.9 4.6 2.5 8.8 0.6 4.2 1.3 7.9 1.6 8.1 0.2 0.2 1.6 -2 3.1 -4.9 5 -10 7.3 -12.9 9.9 -12.9 3.4 0 3.9 1.2 5 12 l1 9.5 2.9 0 c2.6 0 3.1 -0.5 4.6 -5 l1.7 -5 8.8 -0.3 c7.7 -0.2 8.7 -0.1 8.1 1.3 -0.3 0.9 -0.6 2.1 -0.6 2.6 0 0.5 -2.6 0.9 -5.9 0.9 l-5.8 0 -1.3 4.5 c-1.6 5.7 -4.1 7.5 -10.3 7.5 -6.6 0 -8.7 -1.3 -8.7 -5.4 0 -1.8 -0.3 -5.5 -0.6 -8.1 l-0.7 -4.7 -4.2 7.7 c-5.5 10 -6.7 11.2 -9.8 9.8 -2 -1 -2.7 -2.3 -3.6 -7.6 -0.6 -3.5 -1.1 -7.2 -1.1 -8.3 -0.1 -1.8 -0.1 -1.8 -1.6 0.1 -0.9 1.1 -3.1 5 -4.9 8.6 -1.9 3.7 -4.1 6.9 -5 7.3 -2.6 1 -12.4 0.7 -14.6 -0.4 -2.6 -1.4 -2.4 -3.2 1.1 -12.8 l3 -8.2 -4 0 c-3.4 0 -4.8 0.7 -8.6 4.2 -4.8 4.5 -7.9 9.2 -6.9 10.8 0.3 0.6 2.7 1 5.2 1 4.2 0 4.5 0.2 3.9 2.3 -0.3 1.2 -0.6 2.5 -0.6 3 0 1.1 -10.2 0.7 -12.8 -0.5z"/>
  <path d="M100 53.6 c0 -0.3 0.4 -1.6 1 -3 0.9 -2.5 1.3 -2.6 9.4 -2.6 l8.4 0 4.1 -4.2 c2.2 -2.4 4.1 -4.7 4.1 -5.1 0 -0.5 -0.9 -2.2 -2.1 -3.8 l-2 -2.9 -14 0 c-7.6 0 -13.9 -0.2 -13.9 -0.4 0 -0.3 0.4 -1.6 1 -3 l1 -2.6 12.9 0 c11.7 0 18 1 18.1 2.9 0.1 0.3 1 1.7 2 3 l2 2.3 4.5 -4.1 c4.1 -3.8 4.9 -4.1 10 -4.1 3 0 5.5 0.2 5.5 0.4 0 0.3 -0.4 1.6 -1 3 -0.8 2.2 -1.6 2.6 -4.8 2.6 -3.2 0 -4.5 0.7 -7 3.5 -1.8 1.9 -3.2 3.7 -3.2 4.1 0 0.3 1.4 2.4 3.1 4.5 2.7 3.5 3.6 3.9 7.4 3.9 l4.4 0 -1 3 c-1 2.7 -1.5 3 -5.3 3 -4.9 0 -7.6 -1.7 -10.6 -6.5 l-2.2 -3.6 -5.3 5.1 -5.4 5 -10.5 0 c-5.8 0 -10.6 -0.2 -10.6 -0.4z"/>
  <path d="M157.8 52.9 c-2.4 -1.4 -2.2 -4.7 0.7 -12.5 1.4 -3.6 2.5 -7 2.5 -7.5 0 -0.5 -1.6 -0.9 -3.6 -0.9 -3.3 0 -3.6 -0.2 -3 -2.2 0.3 -1.3 0.6 -2.6 0.6 -3 0 -1.4 11.7 -0.9 12.9 0.5 0.8 1.1 0.3 3.6 -1.9 10.2 -1.7 4.9 -3 9.2 -3 9.7 0 0.4 1.6 0.8 3.5 0.8 4.7 0 6.8 -3.5 13.2 -22 5 -14.2 5.1 -14.5 8.2 -14.8 1.7 -0.2 3.1 0.1 3.1 0.7 0 0.5 -1.4 4.7 -3 9.2 l-3 8.2 2.4 -1.7 c3.2 -2.1 13.8 -2.2 15.5 -0.2 1 1.1 0.6 3.3 -1.8 10.1 -1.7 4.8 -3.1 9.1 -3.1 9.6 0 0.5 1.3 0.9 3 0.9 2.6 0 3.6 -1 8.7 -8.7 7.7 -11.6 10.3 -13.3 20.4 -13.3 4.4 0 7.9 0.2 7.9 0.4 0 0.3 -0.4 1.6 -1 3 -0.9 2.4 -1.4 2.6 -7.4 2.6 -5.4 0 -6.9 0.4 -9.5 2.5 -4.4 3.7 -4.7 6 -1.6 10 2.4 3.3 3 3.5 8.5 3.5 l5.8 0 -1.1 3.1 c-1.2 3.1 -1.2 3.1 -7.6 2.7 -5.8 -0.4 -6.7 -0.7 -9.1 -3.6 l-2.7 -3.3 -3.6 3.6 c-3.1 3.1 -4.1 3.5 -8.7 3.5 -9.7 0 -10.7 -2.2 -6.5 -13.4 1.4 -3.7 2.5 -7.1 2.5 -7.6 0 -1.8 -6.7 -1 -9.3 1 -1.4 1.1 -4 4.6 -5.8 7.8 -1.8 3.1 -4.3 7.2 -5.6 9 -2.3 3.1 -2.7 3.2 -9.1 3.2 -3.7 0 -7.5 -0.5 -8.4 -1.1z"/>
  <path d="M162.7 19.2 c-2.3 -2.5 -2.1 -5.5 0.3 -7.7 4.6 -4.1 11.6 2.9 7.5 7.5 -2.3 2.5 -5.7 2.6 -7.8 0.2z"/>
 </g>
 <g fill="#ffffff">
 </g>
</svg>