<?xml version="1.0" encoding="UTF-8"?><svg id="a" xmlns="http://www.w3.org/2000/svg" xmlns:xlink="http://www.w3.org/1999/xlink" viewBox="0 0 500 500"><defs><style>.e{fill:url(#d);}.e,.f,.g{stroke:#c44a95;stroke-miterlimit:10;}.f{fill:url(#b);}.g{fill:url(#c);}</style><linearGradient id="b" x1="249.93" y1="493.17" x2="249.93" y2="6.83" gradientTransform="matrix(1, 0, 0, 1, 0, 0)" gradientUnits="userSpaceOnUse"><stop offset="0" stop-color="#ba388c"/><stop offset="1" stop-color="#d23716"/></linearGradient><linearGradient id="c" x1="431.34" y1="488.61" x2="431.34" y2="51.34" gradientTransform="matrix(1, 0, 0, 1, 0, 0)" gradientUnits="userSpaceOnUse"><stop offset="0" stop-color="#d23716"/><stop offset="1" stop-color="#ba388c"/></linearGradient><linearGradient id="d" x1="68.05" y1="489.89" x2="68.05" y2="53.51" xlink:href="#c"/></defs><path class="f" d="M348.22,492.99c-27.6-34.35-48.34-67.11-70.39-98.93-6.36-9.17-13.18-18.04-19.02-27.53-6.23-10.12-10.75-10.54-17.71-.19-25.48,37.92-51.54,75.45-77.55,113.01-3.18,4.6-5.31,10.29-12.2,13.83-5.92-56.59-11.68-112.34-17.68-168.06-.72-6.68,2.74-10.94,6.32-15.62,10.97-14.35,21.51-29.04,32.73-43.19,7.36-9.27,7-16.61-.21-26.55C120.68,168.39,69.49,96.57,18.32,24.74c-3.15-4.42-10.32-8.89-6.94-14.67,3.11-5.32,10.77-2.5,16.36-2.48,32.94,.1,65.88,.82,98.82,.72,10.12-.03,16.24,4.03,22.1,12.12,29.3,40.44,59.12,80.51,89.04,120.5,11.87,15.86,12.52,15.86,23.92,.61,29.91-40,59.76-80.05,89.02-120.52,6.2-8.57,12.67-12.89,23.4-12.84,34.54,.17,69.08-.47,103.61-.61,3.98-.02,9.56-1.79,11.38,3.03,1.63,4.29-2.95,7.55-5.35,10.9-51.92,72.6-103.62,145.37-156.15,217.52-7.72,10.6-8.14,18.12-.16,27.8,8.44,10.24,15.25,21.9,24.24,31.58,11.7,12.6,15.6,25.96,13.39,43.23-6.25,48.75-10.95,97.69-16.78,151.34Z"/><path class="g" d="M495.05,51.34c-2.31,31.67-4.2,61.56-6.71,91.39-6.89,81.99-14.09,163.95-20.96,245.94-.59,7.06-1.39,13.39-6.67,18.86-27.34,28.32-57.04,54.03-87.1,79.35-1.03,.87-2.8,.85-5.98,1.73,3.72-37.8,7.07-74.59,11.03-111.3,6.89-63.84,14.33-127.61,21.11-191.46,1.22-11.5,4.59-21.27,11.75-30.51,23.44-30.19,46.22-60.88,69.42-91.26,3.38-4.43,6.59-9.41,14.11-12.73Z"/><path class="e" d="M130.76,489.89c-34.5-27.84-65.28-55.33-94.28-84.84-2.76-2.81-3.28-6.45-3.59-10.26C23.6,281.53,14.26,168.27,4.95,55.01c-.03-.43,.3-.88,.51-1.46,5.32-.5,6.99,4.21,9.47,7.21,26.44,31.92,51.91,64.59,76.23,98.16,4.52,6.24,7.38,12.83,8.18,20.39,10.61,100.86,21.2,201.72,31.76,302.58,.16,1.56-.12,3.17-.34,8.01Z"/></svg>